<svg xmlns="http://www.w3.org/2000/svg" viewBox="0 0 2310.79 813.55"><title>Recurso 1</title><g id="Capa_2" data-name="Capa 2"><g id="Capa_1-2" data-name="Capa 1"><path d="M250,47.18q23.8,0,31.67,32.11-7.21,70.76-62.9,154.63-53.07,72.29-63.34,82.56-18.79,10.92-18.78,42.81v10.48q0,66.62,67.49,89.11a75.91,75.91,0,0,0,14.41,1.53H222q41.28,0,59.19-79.06v-4.59q0-2.4-5-2.4H254.36q-36.69,0-51.76-31.23a75.46,75.46,0,0,0-.87-7.86q0-30.57,48.27-40l8.52-.87q31,0,45,26,0,1.53,6.77,15.94,17.91,0,64.21-37.35l7.86-1.09q13.76,0,13.76,12.45,0,17.48-71.85,51.54-16.38,3.28-16.38,24.9-5.46,36-20.09,60.93-24.68,38.44-68.36,38.44h-3.49q-51.11,0-94.79-61.15-12.88-26.21-12.89-74.48,0-42.15,23.81-128.42,23.15-62.25,49.14-102,7.21-21.18,41.28-57.44Q239.07,47.18,250,47.18ZM144.5,292v1.31a3.37,3.37,0,0,0-3.71-3.28h2.62q2.62,0,18.35-23.15,71-93,86.49-159.22a139.47,139.47,0,0,0,9.39-25.12q0-4.15-5.24-8.74h-.66q-12.67,4.59-33.85,37.78-22.28,31.89-46.74,83.65Q144.5,271,144.5,292Zm84.74,43.68q0,8.74,17.25,12a100,100,0,0,0,12.23.87q22.49,0,22.5-5.9v-6.12q0-14.85-22.71-17.25h-.66q-19.44,0-28.61,14.41Z" style="fill:#2b997e"/><path d="M471.45,228.67h3.93q32.11,4.37,32.11,24.24-4.81,28-50.67,57.66-10.7,5.46-67.71,22.93a2.43,2.43,0,0,0-1.31,2v.87q9.17,30.36,28.61,41.5,19.66,10.7,46.3,10.7h7.86q86.49,0,159.87-73.82,10.92-19.66,21-19.66h.87q9.39,0,14.41,12.89-6.12,24.24-74.48,74.26-69.67,31.24-107.67,31.23-4.15,0-23.37,1.75-19,0-58.75-14.63-23.81-19-37.13-41.28-4.8,0-8.52-28.61,0-15.94,24.9-53.73,37.56-35.38,60.06-40.19Q457.91,228.67,471.45,228.67Zm-74.91,75.57c0-.29-.95-.44-2.84-.44h.87q12.66,0,47-15.94,33.2-24.9,33.2-32.76c0-1-.8-1.53-2.4-1.53h-2q-43,10.7-64.65,37.35Q396.54,301.62,396.54,304.24Z" style="fill:#2b997e"/><path d="M646.83,216.87q45.42,5.46,45.43,43,0,25.55-28.83,63.77v-3.06q16.6,18.57,14.41,18.56V335l8.52,4.15q.87,0,56.13-23.15,28.17-9.83,72.07-18.13,12.23,3.5,12.23,16.82-8.08,14.41-26.65,14.41-62.9,14.63-95.66,36.91l12.89,41.06,2.18,12h1.31l-1.75-3.71-.87,1.75.44.66q-1.53,13.1.87,7.86h-.44q-12.67,49.36-33.2,62Q673,502.55,633.95,510l-8.52,4.15v-.87q5.46-2.62-2.4-1.53-14.63-2-11.14.44v-1.09q-31-13.54-31-38.88,0-46.74,71-108.11,4.15-3.71,4.15-5.46v-.87q0-2.4-24.9-27.74-28-33-31-53.95,0-6.77.87-6.77,0,5.9-.87,4.15,0-18.35,12.45-37.78Q627.61,216.88,646.83,216.87ZM611.89,469.57v6.55q1.75,9.83,10.26,9.83,25.34,0,53.51-28.61,10.92-15.51,10.92-42.37-4.81-30.79-11.58-30.79-21,10.48-51.11,51.11Q611.89,451,611.89,469.57Zm18.35-202v2q0,14,16.38,33.2l-.44-.22H642.9Q663,274.1,663,258.15q0-9.17-15.94-12Q635.91,246.14,630.23,267.54Z" style="fill:#2b997e"/><path d="M941.68,0q12,0,18.78,21.4h.44l-2.4-5q0,30.36-25.77,101.56a2.11,2.11,0,0,0-.44,1.09q0-.44,3.49-.22,28.39,0,146.55-34.94h6.33q15.73,1.31,15.73,14.2,0,14-54.82,24.46-89.76,25.55-116.63,25.55-15.73,0-22.71,26.86-21.84,50.89-58.31,113.13-21,29-21,37.13v3.06l2,10.26q9.39,28.39,42.59,66.61,21,15.95,43.46,15.94h2.62q35.16,0,67.71-25.33,28-17,47.18-49.58,16.6-33.63,24-41.72,4.8-3.06,8.74-3.06h1.31q13.76,2.84,13.76,15.07-6.55,21.62-39.53,69.89-27.74,29-47.18,39.75-37.79,20.75-69,20.75h-14q-50.24,0-79.5-45.65-28-29.48-39.31-86.92A36.55,36.55,0,0,1,794.69,304h-2.4l2.4,5V286.76a13.82,13.82,0,0,1,.22-3.71,7.32,7.32,0,0,1-.22-2.62q.88-19.22-1.53-19.22l2.4,5q0-26.21,28.17-99.16a22.26,22.26,0,0,0,.66-6.12v-1.75q0,1.75-3.71,1.09-15.51.88-20.31,1.75-10-.87-17.69-.87h-22.5q-19.66-4.59-19.66-12.45V147q0-5.24,14-11.58,1.75,0,12.45.87,46.52-2.62,49.8-2.62h11.36q11.14,0,24-32.11,16.16-25.11,21.19-37.35,6.11-5,10.26-15.07Q917.87,0,935.56,0ZM828.11,272.13l-2.4-5v9.39q-.22-1.31-2.62-1.31,4.59-2.4,23.81-35.6,17.47-32.32,38.66-80.59v-2.4c0-1-.22-1.53-.66-1.53h-4.15q-21.84,1.53-21.84,7.86-33.2,78.41-33.2,97.63Q825.7,272.13,828.11,272.13Zm46.52-144.58v.22q-.44-1.09,2.4-1.09,20.53,0,23.81-8.74,12-29.7,25.55-79.28c.14.73,0,1.09-.44,1.09h1.75Q884.46,93.48,874.63,127.55Z" style="fill:#2b997e"/><path d="M1171,203.77q24.9,5.46,24.9,21.19,0,19.22-42.15,45a290.49,290.49,0,0,1-45.65,17.69q-16.82,10.92-30.36,68.8a96.06,96.06,0,0,0-3.28,24q0,40.41,21.19,46.3l3.49.66q26.42,0,67.27-67,19.22-40.4,31.89-40.4,10,0,15.29,15.51-7.21,35.17-7.21,44.12v5.24q0,40,23.37,40,27.73,0,52.42-75.57a555.34,555.34,0,0,0,12.45-57.88q6.55-6.33,13.76-6.33,4.59,0,36.26,16.16,15.73,5.68,24.9,5.68a666.47,666.47,0,0,0,113.13-9.61h9.83q10,6.34,10,14.2,0,14.85-42.59,16.82-38.44,5.24-66.83,5.24h-14.85q-31.89,0-58.53-9.61-4.81,0-11.36,44.77-12.45,37.13-41.72,68.14-17.48,14.63-41.28,14.63h-.87q-34.51,0-43.68-41.5-4.15-10.92-2.18-10.7-1.31.88-33.42,36-28.39,19.66-48.27,19.66-34.51,0-50.67-46.74a67.29,67.29,0,0,1-2-16.38V384q0-38.87,14.41-67.71a144.88,144.88,0,0,0,4.15-15.29c.15.15-.14.22-.87.22h-.44L1003,309h-3.93q-10.26,0-14.2-8.74v-5q5.68-12,23.81-12,12,0,69.89-15.51,6.55-2.62,26.65-24.68Q1141.3,203.77,1171,203.77Zm-31.89,41.93h-4.59q11.57,0,24.24-15.73V233q2.62,0,.44-1.09-15.07,8.08-19.66,18.78Q1139.11,251.6,1139.11,245.7Z" style="fill:#727176"/><path d="M1574.39,236.53l11.79.44q25.77.22,36,22.71,2.62,5.9,11.58,49.36,16.38,38.22,57.66,38.22,39.53,0,87.36-45.86,9.17-2.18,13.54-2.18,10.26,4.81,10.26,12.45,0,11.14-21.19,26.21-28.17,24.68-72.51,36-9.61.88-14.85.87h-3.49q-58.53,0-84.52-53.07l-1.75-1.09q.66,0-14,26.43-33,44.34-71.85,44.34h-.87q-29.71,0-45.21-33.2a55.06,55.06,0,0,1-3.06-16.82q1.31-38.22,37.57-76.66Q1536,237.19,1574.39,236.53ZM1497.73,337q0,22.06,19,27.74h4.37q31,0,63.12-66.61,9.17-22.28,9.17-30.14v-5.24q0,.88-13.54.22Q1534,262.09,1508,308.6,1497.73,323.46,1497.73,337Z" style="fill:#727176"/><path d="M1792.8,288.95q8.52,0,12.45,9.61,0,5.9-19.22,71.85,0-5.46,1.31-5.46-1.53,18.35-2.18,20.31,0,16.6,9.61,20.75a5.81,5.81,0,0,1,3.28.66q13.54-2.84,45-52.2,11.79-21.84,22.28-21.84h2.18q12.88,1.75,12.89,13.32v1.31q-7.86,45-7.86,62.46v14.85q0,5.46,1.31,7.64h-2.62q2.84-.44,27.52-29.48,67-79.06,100-98.72a64,64,0,0,1,10.48-1.09q10.92,2.62,10.92,10.7,0,9.39-19.66,21.84-31.24,25.12-69,69.89Q1876,468.48,1876,483.11q0,22.28,4.37,76.66,0,38.87-14.2,125.36-13.76,50-30.14,80.37-18.13,28.39-40,39.53-16.81,8.52-29.48,8.52h-5.24q-38.66,0-38.66-56.35,1.1-21.19,3.49-29.48,0,5.46-1.31,5.46,3.5-39.75,44.55-131a1411,1411,0,0,1,72.51-126.46l2.18-10.48q-1.75-41.06-1.75-52,0-1.31.87-9,0-3.93.44-3.49-.88.44-24.9,22.93a55.72,55.72,0,0,1-28.61,8.08q-25.33,0-33.42-36.26V384.39q0-27.52,25.33-90A32.47,32.47,0,0,1,1792.8,288.95Zm-40,468.26q2.41,30.57,11.14,30.58h4.37q47.61,0,74-132.13,0,5-1.75,5l7-47q0,5-1.75,5,5.24-38.66,5.24-56.13,0-46.08-1.53-46.08-1.1,0-11.79,19.87a805.58,805.58,0,0,0-67.92,138.25Q1752.83,721.38,1752.83,757.21Z" style="fill:#727176"/><path d="M125.8,697.25V580.65L74,670.85H65.8L14,580.65v116.6H0v-142H14.4l55.4,97.2,55.8-97.2h14.2v142Z" style="fill:#211915"/><path d="M359.4,555.25h11.8l59,142H415.4L397,652.85H333.2L315,697.25H300Zm34.4,86.6-28.6-70.2-29,70.2Z" style="fill:#211915"/><path d="M590.6,697.25v-142h60a36.87,36.87,0,0,1,16.9,3.9,44.58,44.58,0,0,1,13.3,10.2,46.88,46.88,0,0,1,8.7,14.3,44.54,44.54,0,0,1,3.1,16.2,48.09,48.09,0,0,1-2.3,14.9,46.15,46.15,0,0,1-6.4,12.8,38.77,38.77,0,0,1-9.9,9.6,35,35,0,0,1-13,5.3l34.8,54.8H680l-33.4-52.4h-42v52.4Zm14-64.8H651a23.77,23.77,0,0,0,11.3-2.7,26.92,26.92,0,0,0,8.7-7.3,35.5,35.5,0,0,0,5.6-10.4,37.19,37.19,0,0,0,2-12.2,33.62,33.62,0,0,0-2.3-12.3,34,34,0,0,0-6.2-10.3,29.65,29.65,0,0,0-9.2-7,24.93,24.93,0,0,0-11.1-2.6H604.6Z" style="fill:#211915"/><path d="M861.2,697.25V555.45h14v82.4l78.2-82.6h15.4l-58,62.4,61,79.6H956.4L902,625.85l-26.8,27.8v43.6Z" style="fill:#211915"/><path d="M1225.2,684.85v12.4h-95.4v-142h93.6v12.4h-79.6v51.2h69.4v11.8h-69.4v54.2Z" style="fill:#211915"/><path d="M1492.4,567.65h-50.6v129.6h-14V567.65h-50.6v-12.4h115.2Z" style="fill:#211915"/><path d="M1653.59,697.25v-142h14v142Z" style="fill:#211915"/><path d="M1916,582V698h-14V556h10.8l94,118.2v-118h14V698h-12.2Z" style="fill:#211915"/><path d="M2299,677.17q-19.8,21.8-45.6,21.8a57.23,57.23,0,0,1-26.5-6.2,69.85,69.85,0,0,1-21-16.4,77.3,77.3,0,0,1-13.9-23.1,72.69,72.69,0,0,1-5-26.5,76.46,76.46,0,0,1,4.9-27.2,72.66,72.66,0,0,1,13.7-22.9,67.23,67.23,0,0,1,20.8-15.8,58.58,58.58,0,0,1,26.2-5.9,73.57,73.57,0,0,1,19,2.3,57.84,57.84,0,0,1,15.3,6.4,48.76,48.76,0,0,1,11.6,9.8,61,61,0,0,1,8.3,12.5l-10.8,7.2q-7-13.2-18.2-19.4a51.59,51.59,0,0,0-25.4-6.2,45,45,0,0,0-21.3,5,51.34,51.34,0,0,0-16.2,13.3,60.83,60.83,0,0,0-10.3,19A68.84,68.84,0,0,0,2201,627a63.68,63.68,0,0,0,4.1,22.8,60.39,60.39,0,0,0,11.3,18.9,55.09,55.09,0,0,0,16.9,12.9,46.9,46.9,0,0,0,21.1,4.8,50.36,50.36,0,0,0,23.3-5.7q11.1-5.7,21.3-18.1V639h-31.6v-10.8h43.4V698H2299Z" style="fill:#211915"/></g></g></svg>