<?xml version="1.0" encoding="iso-8859-1"?>
<!-- Generator: Adobe Illustrator 19.0.0, SVG Export Plug-In . SVG Version: 6.00 Build 0)  -->
<svg version="1.1" id="Layer_1" xmlns="http://www.w3.org/2000/svg" xmlns:xlink="http://www.w3.org/1999/xlink" x="0px" y="0px"
	 viewBox="0 0 512 512" style="enable-background:new 0 0 512 512;" xml:space="preserve">
<g>
	<g>
		<path d="M489.739,233.739c9.217,0,16.696-7.473,16.696-16.696v-66.783c0-9.223-7.479-16.696-16.696-16.696H272.695V97.097
			c19.391-6.914,33.391-25.273,33.391-47.01C306.087,22.468,283.619,0,256,0s-50.087,22.468-50.087,50.087
			c0,21.737,14,40.096,33.391,47.01v36.468H22.26c-9.223,0-16.696,7.473-16.696,16.696v66.783c0,9.223,7.473,16.696,16.696,16.696
			h16.696v36.33c-16.367,5.621-27.578,17.583-29.131,19.317c-6.125,6.837-5.543,17.288,1.255,23.456
			c6.788,6.163,17.337,5.652,23.543-1.103c0.834-0.906,2.391-2.349,4.332-3.887v59.452h434.087v-59.637
			c1.432,1.203,2.861,2.47,4.261,3.99c6.152,6.883,16.735,7.441,23.576,1.299c6.87-6.146,7.445-16.701,1.293-23.571
			c-8.47-9.489-18.509-15.987-29.131-19.368v-36.279H489.739z M439.652,269.905c-10.294,3.259-20.25,9.618-29.039,19.384
			c-0.006,0.007-0.014,0.008-0.02,0.014c-13.471,14.647-28.554,14.659-41.984,0.081c-25.855-28.889-64.69-29.953-91.561-0.097
			c-0.006,0.007-0.014,0.008-0.02,0.014c-13.471,14.647-28.554,14.659-41.984,0.081c-25.855-28.889-64.69-29.953-91.561-0.097
			c-0.006,0.007-0.014,0.008-0.02,0.014c-13.471,14.646-28.554,14.659-41.984,0.081c-1.554-1.732-12.763-13.693-29.131-19.314
			v-36.33h367.304V269.905z"/>
	</g>
</g>
<g>
	<g>
		<path d="M489.739,400.696H22.26c-9.22,0-16.696,7.475-16.696,16.696v33.391c0,9.22,7.474,16.696,16.696,16.696h217.044v27.826
			c0,9.223,7.473,16.696,16.696,16.696s16.696-7.473,16.696-16.696v-27.826h217.043c9.22,0,16.696-7.475,16.696-16.696v-33.391
			C506.434,408.171,498.959,400.696,489.739,400.696z"/>
	</g>
</g>
<g>
</g>
<g>
</g>
<g>
</g>
<g>
</g>
<g>
</g>
<g>
</g>
<g>
</g>
<g>
</g>
<g>
</g>
<g>
</g>
<g>
</g>
<g>
</g>
<g>
</g>
<g>
</g>
<g>
</g>
</svg>
